<?xml version="1.0" encoding="UTF-8"?>
<svg xmlns="http://www.w3.org/2000/svg" version="1.1" viewBox="0 0 124.11 127.56">
  <defs>
    <style>
      .cls-1 {
        fill: none;
      }

      .cls-2 {
        fill: #031431;
      }
    </style>
  </defs>
  <!-- Generator: Adobe Illustrator 28.7.8, SVG Export Plug-In . SVG Version: 1.2.0 Build 200)  -->
  <g>
    <g id="KK_Mark">
      <g>
        <rect class="cls-1" width="124.11" height="127.56"/>
        <g>
          <rect class="cls-1" x="102.85" width="21.26" height="21.26"/>
          <rect class="cls-1" x="102.85" y="106.3" width="21.26" height="21.26"/>
          <rect class="cls-1" width="21.26" height="21.26"/>
          <rect class="cls-1" y="106.3" width="21.26" height="21.26"/>
        </g>
      </g>
      <path class="cls-2" d="M64.82,47.88v.4h-8.3v-.4h0c0-.96,4.15-7.29,4.15-7.29,0,0,4.15,6.33,4.15,7.29h0ZM70.67,41.07c-.75-.04-1.43.22-1.95.68-.04.03,0,.09.04.08.32-.09.67-.11,1.04-.02.77.19,1.38.83,1.51,1.62.21,1.26-.76,2.36-1.99,2.36-.19,0-.38-.03-.56-.08-.05-.01-.08.04-.04.08.48.42,1.1.68,1.79.68,1.53,0,2.77-1.28,2.7-2.83-.06-1.36-1.18-2.49-2.54-2.57M64.96,56.07s-.28-2.11-.28-2.82c0-1.01.97-1.4.97-1.4l.12-2.26h-1.85s-.19,1.42-.19,1.42h-1.63l-.19-1.42h-2.52l-.19,1.42h-1.63l-.19-1.42h-1.85s.12,2.26.12,2.26c0,0,.97.39.97,1.4,0,.7-.28,2.82-.28,2.82h8.59ZM49.69,53.86v-.59c0-1.68-1.24-2.74-2.73-2.74s-2.73,1.05-2.73,2.74v.59s5.46,0,5.46,0ZM66.3,57.42h-11.27v1.7s.7.31.7,1.09c0,1.56-1.21,7.74-.98,12.2h3.92l.29-4.24c.13-1.07.82-1.69,1.69-1.69s1.56.62,1.69,1.69l.29,4.24h3.92c.23-4.46-.98-10.64-.98-12.2,0-.78.7-1.09.7-1.09v-1.7M62.05,38.38c0-.76-.62-1.38-1.38-1.38s-1.38.62-1.38,1.38.62,1.38,1.38,1.38,1.38-.62,1.38-1.38M49.63,60.48h.68v-1s-.87-.18-.87-1.09h0l-.05-.88.84-.68.17-1.8h-1.23l-.16,1.27h-1.19l-.18-1.27h-1.35l-.18,1.27h-1.19l-.16-1.27h-1.23l.17,1.8.84.68-.05.88h0c0,.91-.87,1.09-.87,1.09v1h.68c-.03,3.38-1.71,8.26-1.71,11.93h8.75c0-3.67-1.68-8.55-1.71-11.93ZM77.11,53.86v-.59c0-1.68-1.24-2.74-2.73-2.74s-2.73,1.05-2.73,2.74v.59s5.46,0,5.46,0ZM77.05,60.48h.68v-1s-.87-.18-.87-1.09h0l-.05-.88.84-.68.17-1.8h-1.23l-.16,1.27h-1.19l-.18-1.27h-1.35l-.18,1.27h-1.19l-.16-1.27h-1.23l.17,1.8.84.68-.05.88h0c0,.91-.87,1.09-.87,1.09v1h.68c-.03,3.38-1.71,8.26-1.71,11.93h8.75c0-3.67-1.68-8.55-1.71-11.93ZM49.85,42.64l-2.14-.48,1.49,1.61-1.49,1.61,2.14-.48.65,2.1.65-2.1,2.14.48-1.49-1.61,1.49-1.61-2.14.48-.65-2.1-.65,2.1ZM79.45,74.1c-2.69,0-4.1,1.04-5.34,1.73-1.1.61-2.05,1.2-4.06,1.2s-2.96-.59-4.06-1.2c-1.23-.69-2.64-1.46-5.31-1.47-2.66,0-4.07.79-5.31,1.47-1.1.61-2.05,1.2-4.06,1.2s-2.96-.59-4.06-1.2c-1.24-.69-2.65-1.73-5.34-1.73-1.7,0-3.73.54-3.73.54l1.46,2.54s1.22-.22,2.27-.22c2.01,0,3.09.59,4.2,1.2,1.24.69,2.28,1.64,4.97,1.64s4.16-.87,5.4-1.56c1.1-.61,2.22-1.13,4.21-1.14,1.98,0,3.11.53,4.21,1.14,1.24.69,2.71,1.56,5.4,1.56s3.73-.95,4.97-1.64c1.1-.61,2.19-1.2,4.2-1.2,1.05,0,2.27.22,2.27.22l1.46-2.54s-2.03-.54-3.73-.54ZM74.04,81.57c-1.08.6-2.15.99-4.11.99s-3.03-.45-4.1-1.05c-1.2-.66-2.59-1.51-5.15-1.53-2.56.02-3.95.86-5.15,1.53-1.07.6-2.14,1.05-4.1,1.05s-3.04-.39-4.11-.99c-1.21-.67-2.83-1.77-5.54-1.47,4.1,5.27,9.73,5.19,9.73,5.19,2.48,0,3.89-.51,5.1-1.18,1.06-.59,2.16-1.3,4.08-1.32,1.91.02,3.02.73,4.08,1.32,1.21.67,2.62,1.18,5.1,1.18,0,0,5.63.08,9.73-5.19-2.71-.3-4.33.8-5.54,1.47ZM60.67,85.78c-2.6,0-3.7,1.95-7.13,1.95,1.32.39,4.18,1.02,7.13,1.02,2.95,0,5.81-.63,7.13-1.02-3.43,0-4.54-1.95-7.13-1.95ZM85.31,98.55l1.43-1.06-6.46-4.15-1.5.94.96,7.61,1.52-.8-.23-1.57,2.99-1.86,1.3.88ZM80.8,98.02l-.42-2.81,2.36,1.6-1.94,1.21ZM47.62,96.81l5.09,1.6-.42,1.34-3.48-1.1-.41,1.31,2.9.91-.42,1.34-2.9-.91-.44,1.41,3.48,1.1-.42,1.34-5.09-1.6,2.12-6.73ZM47.86,30.59l-4.82,2.27-.6-1.27,3.3-1.56-.58-1.24-2.75,1.3-.6-1.27,2.75-1.3-.63-1.34-3.3,1.56-.6-1.27,4.82-2.27,3.01,6.38ZM95.95,58.88l-.36-1.65,2.66-.58c-.78-.87-2.11-1.74-3.21-1.97l-.38-1.74c1.33.21,2.91,1.24,3.82,2.14l3.01-3.97.44,2.05-2.48,3.24,3.04-.66.36,1.64-6.89,1.5ZM100.69,74.75l-.78-1.39c.77-.43,1.22-.95,1.36-1.7.13-.67-.05-1.2-.55-1.3-.57-.11-.95.55-1.23,1.23-.47,1.25-1.24,2.38-2.71,2.09-1.32-.26-1.92-1.46-1.59-3.11.22-1.12.67-1.88,1.63-2.49l.75,1.35c-.55.33-.89.82-1.02,1.46-.13.67.03,1.09.43,1.17.49.1.86-.41,1.14-1.16.52-1.36,1.22-2.48,2.8-2.17,1.57.31,2.05,1.73,1.75,3.25-.26,1.3-.92,2.17-1.96,2.77ZM39.35,92.25l2.31,1.57c1.67,1.14,1.86,2.11,1.24,3.02-.36.53-.93.79-1.62.69.63.74.69,1.51.21,2.21-.65.96-1.76,1.31-3.45.16l-2.66-1.82,3.98-5.83ZM38.75,98.84c.62.42,1.1.34,1.4-.1.27-.39.19-.87-.44-1.3l-1.27-.86-.95,1.4,1.27.86ZM40.04,96.17c.52.35,1.03.36,1.34-.09.27-.4.17-.8-.45-1.22l-.91-.62-.89,1.31.91.62ZM27.62,76.72l.73,1.52-2.45,1.18c.96.67,2.46,1.2,3.59,1.17l.78,1.61c-1.34.11-3.12-.52-4.21-1.19l-1.99,4.57-.91-1.89,1.66-3.73-2.81,1.35-.73-1.52,6.36-3.06ZM90.71,82.71l.68-1.35,5.46-1.32-3.86-1.85.74-1.47,6.35,3.07-.74,1.46-.15-.07c-.22-.11-.58-.12-.96-.02l-4.8,1.15,4.28,2.19-.75,1.49-6.25-3.28ZM58.06,28.24l-1.49.25-4.3-3.61.8,4.21-1.62.27-1.29-6.93,1.61-.27.03.17c.04.24.25.54.55.78l3.77,3.18-.77-4.74,1.64-.28,1.06,6.98ZM83.66,90.81l1.35-1.21,5.24,2.03-2.32-5.14,1.11-1.41,3.25,7.25-1.22,1.29-7.42-2.82ZM36.15,89.36l-.1-.94-.99.1c-.08-.32-.21-.64-.37-.94-1.02-1.88-3.26-2.68-5.22-1.62-1.32.72-2,2.01-1.99,3.35l-1.01.11.13.93,1-.1c.08.33.21.66.38.98,1.02,1.88,3.26,2.68,5.22,1.62,1.34-.72,2.02-2.03,1.99-3.38l.96-.1ZM30.25,87.41c1.13-.61,2.49-.19,3.09.91.06.12.12.24.16.37l-4.43.46c.08-.7.49-1.36,1.18-1.73ZM32.41,91.39c-1.13.62-2.49.19-3.08-.9-.07-.13-.13-.27-.17-.41l4.44-.46c-.07.71-.49,1.38-1.19,1.76ZM86.96,30.18l1.28,1.05-2.69,3.76,4.45-1.93.74.73-1.84,4.49,3.71-2.77,1.09,1.28-5.75,4.05-1.17-1.15,1.77-4.37-4.37,1.82-1.19-1.17,3.98-5.78ZM74.27,23.33l1.56.56-1.28,4.48,3.55-3.31.94.44-.23,4.85,2.57-3.87,1.45.84-4.06,5.75-1.49-.69.2-4.71-3.5,3.18-1.52-.7,1.82-6.81ZM56.75,99.14l1.51.03,3.57,4.33-.02-4.28,1.64.03v7.05s-1.63-.03-1.63-.03v-.17c0-.24-.14-.58-.4-.87l-3.12-3.82-.11,4.81-1.66-.03.23-7.06ZM68.78,24.93l-.55,4.05-1.66-.23.46-3.69c.15-1.22-.11-2.04-1.28-2.18-1.19-.15-1.65.6-1.8,1.8l-.46,3.69-1.66-.19.47-4.03c.24-1.94,1.54-3.07,3.65-2.8,2.1.26,3.07,1.66,2.83,3.58ZM98.6,43.92c-.99-1.89-3.22-2.73-5.2-1.7-1.98,1.03-2.56,3.34-1.57,5.24.99,1.89,3.22,2.73,5.2,1.7,1.98-1.03,2.56-3.34,1.57-5.24ZM96.26,47.69c-1.14.6-2.49.15-3.07-.94-.58-1.1-.18-2.47.97-3.07,1.14-.6,2.49-.15,3.07.95.57,1.09.17,2.46-.97,3.06ZM73.38,101.27l-3.1.91.8,2.82-1.64.48-1.88-6.8,1.61-.47.74,2.63,3.07-.9-.8-2.61,1.6-.47,2.11,6.73-1.63.48-.86-2.8Z"/>
    </g>
  </g>
</svg>